PathFileType	4	(X/Y/Z)	c:/Users/goper/Files/vsCode/490R/osim_files/C17/C17_Slow_05.trc
DataRate	CameraRate	NumFrames	NumMarkers	Units                	OrigDataRate	OrigDataStartFrame	OrigNumFrames
250.00	250.00	7	36	mm	250.0	1223	3261
                Frame#	Time	LPSIS			LASIS			LTH1			LTH2			LTH3			LTH4			LLFE			LMFE			LSH1			LSH2			LSH3			LSH4			LLMAL			LMMAL			LCAL			LMTP5			LTOE			LMTP1			RPSIS			RASIS			RTH1			RTH2			RTH3			RTH4			RLFE			RMFE			RSH1			RSH2			RSH3			RSH4			RLMAL			RMMAL			RCAL			RMTP1			RTOE			RMTP5		
		X1	Y1	Z1	X2	Y2	Z2	X3	Y3	Z3	X4	Y4	Z4	X5	Y5	Z5	X6	Y6	Z6	X7	Y7	Z7	X8	Y8	Z8	X9	Y9	Z9	X10	Y10	Z10	X11	Y11	Z11	X12	Y12	Z12	X13	Y13	Z13	X14	Y14	Z14	X15	Y15	Z15	X16	Y16	Z16	X17	Y17	Z17	X18	Y18	Z18	X19	Y19	Z19	X20	Y20	Z20	X21	Y21	Z21	X22	Y22	Z22	X23	Y23	Z23	X24	Y24	Z24	X25	Y25	Z25	X26	Y26	Z26	X27	Y27	Z27	X28	Y28	Z28	X29	Y29	Z29	X30	Y30	Z30	X31	Y31	Z31	X32	Y32	Z32	X33	Y33	Z33	X34	Y34	Z34	X35	Y35	Z35	X36	Y36	Z36

1223	4.88800	-19.02509	1082.19470	245.85757	-208.80132	1038.90369	344.21649	-254.23497	716.12793	399.89392	-281.28082	681.26099	396.15857	-304.52438	750.79272	403.90274	-325.86511	711.38910	399.44791	-343.28796	535.41168	374.23657	-360.16077	539.90149	250.41541	-274.17725	311.01862	362.27457	-275.27921	267.56247	359.16376	-335.55524	304.45273	372.60831	-327.14117	261.83466	366.57846	-283.23206	120.93512	344.08176	-318.48618	131.72403	260.59232	-221.50285	86.21914	277.72485	-388.38617	55.84867	388.90381	-458.96228	83.36552	341.79346	-454.84128	60.99484	291.39227	-27.59130	1080.12048	172.56654	-214.18494	1050.32520	74.71387	-143.09790	754.42731	23.99690	-142.73952	708.39587	33.34904	-202.26501	750.92316	41.67866	-193.93306	704.42670	44.31363	-146.77649	485.12091	70.91190	-125.16920	506.83844	193.57745	-41.47245	299.73456	69.60251	-37.56408	257.03058	85.61222	-102.88373	291.80252	82.48539	-91.28104	247.43031	96.35754	-9.96768	93.89484	131.13687	-33.50945	111.45174	218.56424	65.38786	62.66314	170.63133	-164.58542	40.68506	230.99554	-183.30757	61.88174	185.44748	-132.00516	36.74886	111.75980
1224	4.89200	-23.87048	1082.03064	246.10201	-213.94687	1038.31555	344.24408	-259.01483	715.43182	399.35193	-286.05017	680.49908	395.52728	-309.50845	749.89905	403.55011	-330.54538	710.32721	398.96210	-348.54654	534.63239	373.61755	-364.63058	539.05701	249.75012	-284.95001	308.39664	362.06039	-284.13885	266.14041	359.44354	-346.95505	303.38745	372.52692	-339.79706	260.50623	366.61203	-299.52493	118.47642	344.40198	-335.46167	130.13443	260.67426	-239.09790	82.14433	277.72375	-405.88846	56.03985	389.98114	-476.14276	85.26134	343.66696	-472.88425	62.46321	292.91422	-32.48266	1079.77832	172.93201	-218.64848	1049.24500	74.55911	-146.59517	754.22266	23.99126	-145.97566	708.25623	33.30196	-205.74364	750.44897	41.78864	-197.21072	703.94336	44.27731	-148.89490	484.86432	70.85331	-127.44170	506.72989	193.58557	-42.90593	299.85876	69.09362	-39.09951	257.16144	85.52872	-104.08537	291.72983	82.37180	-92.30794	247.35088	96.37013	-10.38617	94.30052	131.01320	-33.76608	111.68816	218.46820	65.22213	63.10691	170.52910	-164.62097	40.64893	231.02498	-183.41891	61.72655	185.46916	-132.01450	36.68866	111.75064
1225	4.89600	-29.15259	1081.51074	246.61748	-219.08353	1037.63843	344.20111	-263.68744	714.67584	398.71008	-290.70261	679.59192	394.81143	-314.36960	748.94592	403.10110	-335.26886	709.37305	398.47281	-353.72559	533.80206	372.99622	-369.09961	537.95746	249.09943	-296.55139	305.43787	361.75140	-299.83102	262.35422	359.04599	-358.21622	302.44846	372.48392	-352.11353	259.35117	366.71634	-315.79080	116.30396	344.68967	-348.61865	127.28097	263.10498	-256.66791	78.37946	277.79388	-423.55798	56.56446	390.94278	-493.31384	87.21311	344.92630	-490.73096	64.30602	294.29431	-37.51534	1079.47852	173.27252	-223.73212	1049.05969	74.64876	-149.63814	754.35785	23.73924	-149.22716	708.08881	33.23158	-209.13686	749.91254	41.93361	-200.32115	703.61487	44.09023	-152.01796	485.19678	70.52025	-129.64828	506.65555	193.55679	-44.23243	300.08432	68.99171	-40.14364	257.45212	85.39755	-105.19796	291.70459	82.16759	-93.12301	247.47404	96.10389	-10.96865	94.89877	130.89690	-34.02377	111.93098	218.36761	65.06461	63.47401	170.43033	-164.50819	41.06040	231.38573	-183.58038	61.56960	185.45630	-131.66444	35.09944	113.55923
1226	4.90000	-34.14731	1081.14709	247.02113	-224.29816	1036.99548	344.31171	-267.30283	714.32233	397.27783	-295.19672	678.51404	394.06461	-318.98270	747.70410	402.72220	-339.78918	708.07092	397.90329	-358.74344	533.03467	372.43414	-373.32397	536.86621	248.40958	-307.21274	303.14746	361.53189	-311.93372	260.07837	359.08307	-369.49185	301.65198	372.46219	-364.51883	258.39670	366.80545	-332.04697	114.31411	345.07462	-367.63898	127.18623	261.82727	-274.06076	74.85715	277.98959	-441.13904	57.42789	391.84238	-510.28976	89.62661	346.00443	-508.52597	66.55896	295.45120	-42.47692	1079.15845	173.65828	-228.48521	1048.56616	74.66685	-153.65329	753.88440	23.90655	-152.52388	707.90424	33.20448	-212.56528	749.52545	42.16050	-203.67186	703.07318	44.22302	-154.02728	484.90964	70.44021	-131.86900	506.54099	193.57556	-44.96999	300.59021	69.23660	-41.00659	257.79883	85.23457	-105.92847	291.95529	81.64270	-94.27380	247.26091	96.23318	-11.38084	95.15481	130.80542	-34.35936	112.16860	218.24039	64.95831	63.93945	170.29745	-164.56764	41.06691	231.39326	-183.75745	61.32227	185.50110	-131.75179	35.10035	113.51630
1227	4.90400	-39.17083	1081.01379	247.32761	-229.70256	1036.32593	344.42056	-271.95801	713.18738	396.61746	-299.52728	677.33966	393.26767	-323.61630	746.45673	402.11398	-344.26541	706.73120	397.40610	-363.76013	532.14368	371.86993	-377.50412	535.57324	247.73526	-318.33768	300.76416	361.31311	-323.98642	257.94400	359.24637	-380.50351	300.97195	372.37436	-376.77963	257.56470	366.89935	-348.14047	112.62660	345.40259	-383.66595	126.19550	262.16345	-291.57513	71.48483	278.31985	-458.52832	58.74095	392.64081	-527.00903	92.21940	346.78180	-526.05432	69.28039	296.46512	-47.50080	1078.76855	174.03136	-233.02412	1047.15527	74.53725	-157.26347	753.64758	23.87589	-155.88200	707.71899	33.17096	-215.47008	749.48511	41.73424	-206.95415	702.56012	44.42101	-156.12270	484.81769	70.38665	-134.28551	506.33572	193.64375	-46.16090	300.88135	69.18559	-42.14856	258.05597	85.15832	-106.57467	290.43045	82.12608	-95.15983	247.35214	96.05265	-11.59335	95.52740	130.72882	-34.66998	112.40575	218.17224	64.80822	64.41177	170.23569	-164.62209	41.05308	231.39201	-183.87807	61.20759	185.50586	-131.85002	35.12944	113.46413
1228	4.90800	-44.41686	1080.29907	247.92000	-234.94424	1035.48242	344.46829	-276.46628	711.92621	395.97122	-303.82925	676.03375	392.49390	-327.99805	745.10901	401.67676	-348.61179	705.20490	396.85510	-368.68781	531.26581	371.30460	-381.79428	534.14496	247.19066	-329.77689	298.30566	361.15494	-337.34970	255.07521	358.32812	-391.56583	300.46616	372.32132	-389.00824	257.00854	366.99905	-364.18039	111.09625	345.74664	-399.41153	125.50031	262.55701	-308.81711	68.30781	278.70667	-475.90936	60.37599	393.22070	-543.72162	95.45761	347.27386	-543.22308	72.39266	297.10681	-52.51520	1078.38489	174.49638	-238.12222	1047.21277	74.67781	-160.76064	753.47247	23.87236	-159.09547	707.67053	33.16164	-219.23570	749.03192	40.79093	-210.13733	702.14288	44.50334	-158.14890	484.51962	70.36301	-136.59776	506.20132	193.36163	-47.38002	301.13919	69.07670	-43.07095	258.38736	85.03364	-108.77605	291.55618	81.33819	-96.19385	247.28421	96.05216	-11.91828	95.87420	130.65317	-34.97318	112.67361	218.07880	64.65028	64.80013	170.15120	-164.69244	40.98673	231.39635	-183.86212	61.19682	185.46535	-131.93211	35.14240	113.45455
1229	4.91200	-49.46148	1080.13745	248.21652	-239.99483	1034.72424	344.50613	-280.93719	710.54913	395.32248	-308.08298	674.73859	391.69763	-332.56110	743.66101	401.10651	-352.87540	703.74310	396.21304	-373.57071	530.33044	370.79977	-386.06607	532.63342	246.59491	-340.56100	296.33954	361.55695	-349.40024	253.20482	358.44260	-402.49100	300.04636	372.23276	-402.01370	257.09744	366.18155	-380.13739	109.85813	346.21143	-414.85522	125.06895	262.81509	-325.93198	65.33988	279.33871	-493.30984	62.46203	393.66452	-560.14221	99.12930	347.45496	-560.10339	76.24541	297.28259	-57.56408	1078.16589	174.81905	-242.87730	1046.29993	74.65955	-164.47562	753.23322	23.85048	-162.57845	707.38080	33.15188	-222.71994	748.43909	40.93912	-212.96284	701.93073	44.11852	-160.32133	484.32993	70.30775	-138.84865	506.03299	193.45753	-48.51372	301.47415	69.00631	-43.18622	259.28757	84.73502	-112.17461	293.38312	78.89890	-97.13926	247.40639	95.85867	-12.31372	96.17622	130.54730	-35.29832	112.92786	217.98714	64.40461	65.20632	170.09349	-164.76382	40.96673	231.44717	-183.95293	61.07251	185.45958	-132.05031	35.18190	113.41119
